<mxfile host="app.diagrams.net" agent="Mozilla/5.0 (Windows NT 10.0; Win64; x64) AppleWebKit/537.36 (KHTML, like Gecko) Chrome/133.0.0.0 Safari/537.36" version="26.1.0">
  <diagram name="Page-1" id="GAXhWgXY3Mdr9NYjEp-w">
    <mxGraphModel dx="1235" dy="624" grid="1" gridSize="10" guides="1" tooltips="1" connect="1" arrows="1" fold="1" page="1" pageScale="1" pageWidth="827" pageHeight="1169" math="0" shadow="0">
      <root>
        <mxCell id="0" />
        <mxCell id="1" parent="0" />
        <mxCell id="6AWZt8sm1g47SUFo5E9d-10" value="targy" style="ellipse;whiteSpace=wrap;html=1;" vertex="1" parent="1">
          <mxGeometry x="110" y="420" width="120" height="80" as="geometry" />
        </mxCell>
        <mxCell id="6AWZt8sm1g47SUFo5E9d-11" value="idopont" style="ellipse;whiteSpace=wrap;html=1;" vertex="1" parent="1">
          <mxGeometry x="240" y="420" width="120" height="80" as="geometry" />
        </mxCell>
        <mxCell id="6AWZt8sm1g47SUFo5E9d-12" value="helyszin" style="ellipse;whiteSpace=wrap;html=1;" vertex="1" parent="1">
          <mxGeometry x="380" y="420" width="120" height="80" as="geometry" />
        </mxCell>
        <mxCell id="6AWZt8sm1g47SUFo5E9d-13" value="oktato" style="ellipse;whiteSpace=wrap;html=1;" vertex="1" parent="1">
          <mxGeometry x="520" y="420" width="120" height="80" as="geometry" />
        </mxCell>
        <mxCell id="6AWZt8sm1g47SUFo5E9d-14" value="szak" style="ellipse;whiteSpace=wrap;html=1;" vertex="1" parent="1">
          <mxGeometry x="650" y="420" width="120" height="80" as="geometry" />
        </mxCell>
        <mxCell id="6AWZt8sm1g47SUFo5E9d-15" value="" style="endArrow=none;html=1;rounded=0;exitX=1;exitY=0;exitDx=0;exitDy=0;entryX=0.5;entryY=1;entryDx=0;entryDy=0;" edge="1" parent="1" source="6AWZt8sm1g47SUFo5E9d-10">
          <mxGeometry width="50" height="50" relative="1" as="geometry">
            <mxPoint x="210" y="410" as="sourcePoint" />
            <mxPoint x="440" y="270" as="targetPoint" />
          </mxGeometry>
        </mxCell>
        <mxCell id="6AWZt8sm1g47SUFo5E9d-16" value="" style="endArrow=none;html=1;rounded=0;exitX=0.5;exitY=0;exitDx=0;exitDy=0;entryX=0.5;entryY=1;entryDx=0;entryDy=0;" edge="1" parent="1" source="6AWZt8sm1g47SUFo5E9d-11">
          <mxGeometry width="50" height="50" relative="1" as="geometry">
            <mxPoint x="310" y="410" as="sourcePoint" />
            <mxPoint x="440" y="270" as="targetPoint" />
          </mxGeometry>
        </mxCell>
        <mxCell id="6AWZt8sm1g47SUFo5E9d-17" value="" style="endArrow=none;html=1;rounded=0;exitX=0.5;exitY=0;exitDx=0;exitDy=0;" edge="1" parent="1" source="6AWZt8sm1g47SUFo5E9d-12">
          <mxGeometry width="50" height="50" relative="1" as="geometry">
            <mxPoint x="450" y="410" as="sourcePoint" />
            <mxPoint x="440" y="270" as="targetPoint" />
          </mxGeometry>
        </mxCell>
        <mxCell id="6AWZt8sm1g47SUFo5E9d-18" value="" style="endArrow=none;html=1;rounded=0;entryX=0.5;entryY=1;entryDx=0;entryDy=0;exitX=0.5;exitY=0;exitDx=0;exitDy=0;" edge="1" parent="1" source="6AWZt8sm1g47SUFo5E9d-13">
          <mxGeometry width="50" height="50" relative="1" as="geometry">
            <mxPoint x="550" y="410" as="sourcePoint" />
            <mxPoint x="440" y="270" as="targetPoint" />
          </mxGeometry>
        </mxCell>
        <mxCell id="6AWZt8sm1g47SUFo5E9d-19" value="" style="endArrow=none;html=1;rounded=0;exitX=0.5;exitY=0;exitDx=0;exitDy=0;" edge="1" parent="1" source="6AWZt8sm1g47SUFo5E9d-14">
          <mxGeometry width="50" height="50" relative="1" as="geometry">
            <mxPoint x="670" y="410" as="sourcePoint" />
            <mxPoint x="440" y="270" as="targetPoint" />
          </mxGeometry>
        </mxCell>
        <mxCell id="6AWZt8sm1g47SUFo5E9d-22" value="tol" style="ellipse;whiteSpace=wrap;html=1;" vertex="1" parent="1">
          <mxGeometry x="230" y="520" width="120" height="80" as="geometry" />
        </mxCell>
        <mxCell id="6AWZt8sm1g47SUFo5E9d-23" value="ig" style="ellipse;whiteSpace=wrap;html=1;" vertex="1" parent="1">
          <mxGeometry x="354" y="510" width="120" height="80" as="geometry" />
        </mxCell>
        <mxCell id="6AWZt8sm1g47SUFo5E9d-24" value="nap" style="ellipse;whiteSpace=wrap;html=1;" vertex="1" parent="1">
          <mxGeometry x="110" y="510" width="120" height="80" as="geometry" />
        </mxCell>
        <mxCell id="6AWZt8sm1g47SUFo5E9d-34" value="" style="endArrow=none;html=1;rounded=0;entryX=0.5;entryY=1;entryDx=0;entryDy=0;" edge="1" parent="1" source="6AWZt8sm1g47SUFo5E9d-24" target="6AWZt8sm1g47SUFo5E9d-11">
          <mxGeometry width="50" height="50" relative="1" as="geometry">
            <mxPoint x="400" y="480" as="sourcePoint" />
            <mxPoint x="250" y="510" as="targetPoint" />
          </mxGeometry>
        </mxCell>
        <mxCell id="6AWZt8sm1g47SUFo5E9d-35" value="" style="endArrow=none;html=1;rounded=0;entryX=0.5;entryY=1;entryDx=0;entryDy=0;exitX=0.5;exitY=0;exitDx=0;exitDy=0;" edge="1" parent="1" source="6AWZt8sm1g47SUFo5E9d-22" target="6AWZt8sm1g47SUFo5E9d-11">
          <mxGeometry width="50" height="50" relative="1" as="geometry">
            <mxPoint x="205" y="557" as="sourcePoint" />
            <mxPoint x="268" y="498" as="targetPoint" />
          </mxGeometry>
        </mxCell>
        <mxCell id="6AWZt8sm1g47SUFo5E9d-36" value="" style="endArrow=none;html=1;rounded=0;entryX=0.5;entryY=1;entryDx=0;entryDy=0;" edge="1" parent="1" source="6AWZt8sm1g47SUFo5E9d-23" target="6AWZt8sm1g47SUFo5E9d-11">
          <mxGeometry width="50" height="50" relative="1" as="geometry">
            <mxPoint x="300" y="540" as="sourcePoint" />
            <mxPoint x="310" y="510" as="targetPoint" />
          </mxGeometry>
        </mxCell>
        <mxCell id="6AWZt8sm1g47SUFo5E9d-54" value="ora" style="rounded=0;whiteSpace=wrap;html=1;" vertex="1" parent="1">
          <mxGeometry x="380" y="210" width="120" height="60" as="geometry" />
        </mxCell>
        <mxCell id="6AWZt8sm1g47SUFo5E9d-55" value="XML_orarend" style="rounded=0;whiteSpace=wrap;html=1;" vertex="1" parent="1">
          <mxGeometry x="383" width="120" height="60" as="geometry" />
        </mxCell>
        <mxCell id="6AWZt8sm1g47SUFo5E9d-56" value="SIYKJ5" style="rhombus;whiteSpace=wrap;html=1;" vertex="1" parent="1">
          <mxGeometry x="380" y="90" width="126" height="80" as="geometry" />
        </mxCell>
        <mxCell id="6AWZt8sm1g47SUFo5E9d-57" value="" style="endArrow=classic;html=1;rounded=0;entryX=0.5;entryY=0;entryDx=0;entryDy=0;exitX=0.5;exitY=1;exitDx=0;exitDy=0;" edge="1" parent="1" source="6AWZt8sm1g47SUFo5E9d-55" target="6AWZt8sm1g47SUFo5E9d-56">
          <mxGeometry width="50" height="50" relative="1" as="geometry">
            <mxPoint x="360" y="300" as="sourcePoint" />
            <mxPoint x="410" y="250" as="targetPoint" />
          </mxGeometry>
        </mxCell>
        <mxCell id="6AWZt8sm1g47SUFo5E9d-58" value="" style="endArrow=classic;startArrow=classic;html=1;rounded=0;entryX=0.5;entryY=0;entryDx=0;entryDy=0;exitX=0.5;exitY=1;exitDx=0;exitDy=0;" edge="1" parent="1" source="6AWZt8sm1g47SUFo5E9d-56" target="6AWZt8sm1g47SUFo5E9d-54">
          <mxGeometry width="50" height="50" relative="1" as="geometry">
            <mxPoint x="360" y="300" as="sourcePoint" />
            <mxPoint x="410" y="250" as="targetPoint" />
          </mxGeometry>
        </mxCell>
        <mxCell id="6AWZt8sm1g47SUFo5E9d-59" value="id" style="ellipse;whiteSpace=wrap;html=1;" vertex="1" parent="1">
          <mxGeometry x="80" y="330" width="120" height="80" as="geometry" />
        </mxCell>
        <mxCell id="6AWZt8sm1g47SUFo5E9d-61" value="tipus" style="ellipse;whiteSpace=wrap;html=1;" vertex="1" parent="1">
          <mxGeometry x="670" y="310" width="120" height="80" as="geometry" />
        </mxCell>
        <mxCell id="6AWZt8sm1g47SUFo5E9d-62" value="" style="endArrow=none;html=1;rounded=0;entryX=0.5;entryY=1;entryDx=0;entryDy=0;exitX=1;exitY=0.5;exitDx=0;exitDy=0;" edge="1" parent="1" source="6AWZt8sm1g47SUFo5E9d-59" target="6AWZt8sm1g47SUFo5E9d-54">
          <mxGeometry width="50" height="50" relative="1" as="geometry">
            <mxPoint x="360" y="420" as="sourcePoint" />
            <mxPoint x="410" y="370" as="targetPoint" />
          </mxGeometry>
        </mxCell>
        <mxCell id="6AWZt8sm1g47SUFo5E9d-63" value="" style="endArrow=none;html=1;rounded=0;entryX=0;entryY=0.5;entryDx=0;entryDy=0;exitX=0.5;exitY=1;exitDx=0;exitDy=0;" edge="1" parent="1" source="6AWZt8sm1g47SUFo5E9d-54" target="6AWZt8sm1g47SUFo5E9d-61">
          <mxGeometry width="50" height="50" relative="1" as="geometry">
            <mxPoint x="360" y="420" as="sourcePoint" />
            <mxPoint x="410" y="370" as="targetPoint" />
          </mxGeometry>
        </mxCell>
      </root>
    </mxGraphModel>
  </diagram>
</mxfile>
